<svg width="24" height="24" viewBox="0 0 24 24" fill="none" xmlns="http://www.w3.org/2000/svg">
<g clip-path="url(#clip0_2779_11133)">
<path d="M5.0191 11.354C5.16966 11.354 5.33588 11.2663 5.44228 11.1597L10.937 5.62998C11.0435 5.52358 11.087 5.34792 11.087 5.19728V0.628C11.087 0.378305 10.9244 0.182617 10.6844 0.182617C10.5671 0.182617 10.4668 0.231055 10.379 0.318888L0.134735 10.5696C0.00233911 10.7016 -0.0345542 10.9047 0.0332584 11.0688C0.101152 11.233 0.262691 11.354 0.449741 11.354H5.0191Z" fill="#40916C"/>
<path d="M5.76539 13.2218C5.65883 13.1155 5.49285 13.0493 5.34245 13.0493H0.810551C0.623662 13.0493 0.465352 13.1488 0.397378 13.3127C0.329404 13.4768 0.369285 13.6595 0.501519 13.7917L10.3918 23.6814C10.4797 23.7693 10.5926 23.8174 10.71 23.8174C10.8597 23.8174 10.9702 23.7402 11.0479 23.6113C11.0902 23.5412 11.0871 23.4583 11.0871 23.3717V18.8398C11.0871 18.6892 11.0437 18.5243 10.9372 18.4178L5.76539 13.2218Z" fill="#40916C"/>
<path d="M16.7946 12.0186C16.7946 11.8892 16.7442 11.7676 16.6528 11.6762L12.3446 7.36783C12.2531 7.27637 12.1315 7.22607 12.002 7.22607C11.8726 7.22607 11.751 7.27637 11.6596 7.36783L7.35123 11.6761C7.25977 11.7676 7.20947 11.8892 7.20947 12.0186C7.20947 12.1481 7.25977 12.2697 7.35123 12.3611L11.6594 16.6694C11.7509 16.7608 11.8726 16.8112 12.002 16.8112C12.1314 16.8112 12.253 16.7608 12.3444 16.6694L16.6527 12.3612C16.7442 12.2697 16.7946 12.1481 16.7946 12.0186Z" fill="#74C69D"/>
<path d="M23.1934 13.0493H18.6615C18.5109 13.0493 18.3447 13.1157 18.2383 13.2222L13.0399 18.4178C12.9334 18.5242 12.863 18.6892 12.863 18.8398V23.3718C12.863 23.6215 13.066 23.7864 13.3058 23.7864C13.3058 23.7864 13.2999 23.7864 13.2999 23.7864C13.4175 23.7864 13.5276 23.7532 13.6151 23.6654L23.5039 13.7828C23.636 13.6507 23.6752 13.473 23.6072 13.3089C23.5394 13.145 23.3804 13.0493 23.1934 13.0493Z" fill="#40916C"/>
<path d="M23.8631 10.5699L13.6126 0.319333C13.5247 0.231177 13.4101 0.182739 13.2925 0.182739C13.0525 0.182739 12.863 0.378346 12.863 0.628042V5.19748C12.863 5.34804 12.9334 5.51426 13.0399 5.62066L18.5611 11.1602C18.6676 11.2665 18.8344 11.3541 18.9847 11.3541H23.5541C23.7411 11.3541 23.8993 11.2332 23.9673 11.0692C24.0352 10.905 23.9954 10.7021 23.8631 10.5699Z" fill="#40916C"/>
</g>
<defs>
<clipPath id="clip0_2779_11133">
<rect width="24" height="24" fill="white"/>
</clipPath>
</defs>
</svg>
